HIERARCHY
ROOT Hips
{
    OFFSET 0.000000 0.000000 0.000000
    CHANNELS 6 Xposition Yposition Zposition Zrotation Xrotation Yrotation
    JOINT Spine
    {
        OFFSET -0.000000 8.349382 0.000000
        CHANNELS 3 Zrotation Xrotation Yrotation
        JOINT Spine1
        {
            OFFSET -0.000000 23.269058 0.000000
            CHANNELS 3 Zrotation Xrotation Yrotation
            JOINT Neck
            {
                OFFSET -0.000000 23.173496 2.106681
                CHANNELS 3 Zrotation Xrotation Yrotation
                JOINT Head
                {
                    OFFSET -0.000000 14.255042 -2.036435
                    CHANNELS 3 Zrotation Xrotation Yrotation
                    End Site
                    {
                        OFFSET -0.000000 25.455433 0.000000
                    }
                }
            }
            JOINT LeftShoulder
            {
                OFFSET 3.917082 21.531742 0.000256
                CHANNELS 3 Zrotation Xrotation Yrotation
                JOINT LeftArm
                {
                    OFFSET 10.728225 0.000000 0.000000
                    CHANNELS 3 Zrotation Xrotation Yrotation
                    JOINT LeftForeArm
                    {
                        OFFSET 30.046112 0.000000 0.000000
                        CHANNELS 3 Zrotation Xrotation Yrotation
                        JOINT LeftHand
                        {
                            OFFSET 29.023712 0.000000 0.000000
                            CHANNELS 3 Zrotation Xrotation Yrotation
                            End Site
                            {
                                OFFSET 15.273261 0.000000 0.000000
                            }
                        }
                    }
                }
            }
            JOINT RightShoulder
            {
                OFFSET -3.920664 21.531742 0.000256
                CHANNELS 3 Zrotation Xrotation Yrotation
                JOINT RightArm
                {
                    OFFSET -10.728225 0.000000 0.000000
                    CHANNELS 3 Zrotation Xrotation Yrotation
                    JOINT RightForeArm
                    {
                        OFFSET -30.046112 0.000000 0.000000
                        CHANNELS 3 Zrotation Xrotation Yrotation
                        JOINT RightHand
                        {
                            OFFSET -29.023712 0.000000 0.000000
                            CHANNELS 3 Zrotation Xrotation Yrotation
                            End Site
                            {
                                OFFSET -15.273261 0.000000 0.000000
                            }
                        }
                    }
                }
            }
        }
    }
    JOINT LeftUpLeg
    {
        OFFSET 10.182174 0.000000 0.000000
        CHANNELS 3 Zrotation Xrotation Yrotation
        JOINT LeftLeg
        {
            OFFSET -0.000000 -49.689274 0.000000
            CHANNELS 3 Zrotation Xrotation Yrotation
            JOINT LeftFoot
            {
                OFFSET -0.000000 -39.155319 0.000000
                CHANNELS 3 Zrotation Xrotation Yrotation
                JOINT LeftToeBase
                {
                    OFFSET -0.000000 -6.618412 15.273261
                    CHANNELS 3 Zrotation Xrotation Yrotation
                    End Site
                    {
                        OFFSET -0.000000 0.000000 4.072869
                    }
                }
            }
        }
    }
    JOINT RightUpLeg
    {
        OFFSET -10.182174 0.000000 0.000000
        CHANNELS 3 Zrotation Xrotation Yrotation
        JOINT RightLeg
        {
            OFFSET -0.000000 -49.689274 0.000000
            CHANNELS 3 Zrotation Xrotation Yrotation
            JOINT RightFoot
            {
                OFFSET -0.000000 -39.155319 0.000000
                CHANNELS 3 Zrotation Xrotation Yrotation
                JOINT RightToeBase
                {
                    OFFSET -0.000000 -6.618412 15.273261
                    CHANNELS 3 Zrotation Xrotation Yrotation
                    End Site
                    {
                        OFFSET -0.000000 0.000000 4.072869
                    }
                }
            }
        }
    }
}
MOTION
Frames:    9
Frame Time:    0.008333
6.897495    97.697052    36.013641    -1.042699    -0.307573    95.637199    -1.326895    -1.315795    0.288183    2.167518    7.272868    0.165673    -0.485901    2.917364    -2.428901    4.332773    9.356139    -2.202475    9.604522    -1.133384    -15.186206    -20.912529    -9.798977    7.161541    8.289042    -5.384352    -20.139862    10.424609    -3.122241    8.685205    -11.331175    5.738028    -20.786007    33.338001    -2.774710    5.694723    -7.185115    -1.716784    12.085199    -25.692411    0.607307    -6.844370    2.804000    2.587552    -3.329135    -7.489571    -2.415936    -1.975812    2.970757    -1.769976    13.636837    0.000000    0.000000    0.000000    -8.268530    -5.949728    -13.147991    3.948581    16.688398    -4.964564    5.438002    -4.351919    -2.572443    0.000000    0.000000    0.000000    
6.972836    97.707390    36.121361    -0.987562    -0.287013    95.684715    -1.353464    -1.383486    0.347892    2.150074    7.286866    0.227336    -0.406752    3.106688    -2.453658    4.343918    10.033754    -2.264039    9.701880    -1.193714    -15.192081    -20.880379    -9.849952    7.195305    8.296218    -5.603066    -20.269880    10.685349    -3.296388    8.837594    -11.452650    5.661913    -20.937489    33.217594    -3.201452    5.520251    -6.950644    -1.678476    11.947698    -26.620264    0.740012    -7.135955    2.822711    2.723941    -3.400399    -7.396251    -2.520850    -1.919073    2.836566    -1.724627    13.616520    0.000000    0.000000    0.000000    -8.162756    -5.686871    -12.741610    4.010365    16.388981    -4.701544    5.337989    -4.486814    -3.256453    0.000000    0.000000    0.000000    
7.050969    97.730400    36.220089    -0.924052    -0.266743    95.703674    -1.325099    -1.383085    0.402371    2.043289    7.144052    0.290963    -0.239898    3.448405    -2.421140    4.272480    10.680869    -2.279641    9.778854    -1.180622    -15.255068    -20.845974    -9.785275    7.287282    8.418141    -5.885852    -20.246761    10.926920    -3.537003    8.880997    -11.320240    5.717248    -21.026325    32.925995    -3.547197    5.363039    -6.907274    -1.758274    11.835504    -27.393793    0.836741    -7.695628    2.829999    2.872586    -3.481572    -7.289209    -2.611425    -1.897668    2.686357    -1.670873    13.675723    0.000000    0.000000    0.000000    -8.040291    -5.485231    -12.359986    3.983463    16.184793    -4.695902    5.512521    -4.605839    -3.585942    0.000000    0.000000    0.000000    
7.128978    97.758545    36.318165    -0.856960    -0.284413    95.721519    -1.252535    -1.415756    0.411684    1.988459    7.071555    0.304283    -0.266282    3.745235    -2.372810    4.360384    11.413541    -2.250921    9.802392    -1.115091    -15.181849    -20.797705    -9.754291    7.387149    8.465885    -6.259983    -20.360144    11.504944    -3.844103    8.939373    -11.403036    5.661860    -21.040621    32.753471    -3.697311    5.165349    -6.910602    -2.022124    11.731445    -27.872944    0.710966    -8.136655    2.864522    3.018893    -3.519245    -7.159557    -2.698444    -1.899356    2.525747    -1.616502    13.716762    0.000000    0.000000    0.000000    -7.913758    -5.217719    -11.586875    4.161291    15.842623    -4.978031    5.556149    -4.579472    -4.069991    0.000000    0.000000    0.000000    
7.210104    97.794357    36.420818    -0.795883    -0.325789    95.724518    -1.168358    -1.457449    0.438198    1.908348    6.964995    0.337042    -0.049302    4.197092    -2.280900    4.159849    11.974399    -2.209928    9.857043    -1.042330    -15.177448    -20.735363    -9.698421    7.514956    8.568830    -6.441446    -20.414299    11.895633    -3.957591    9.084320    -11.363053    5.591384    -21.022367    32.447365    -3.832217    4.895743    -6.965284    -2.251873    11.655067    -28.016932    0.604542    -8.581538    2.920925    3.157261    -3.503118    -7.030942    -2.774346    -1.920825    2.376513    -1.545571    13.752289    0.000000    0.000000    0.000000    -7.781257    -4.998206    -11.269184    4.235365    15.614781    -4.794768    5.481228    -4.549233    -4.548295    0.000000    0.000000    0.000000    
7.294738    97.839096    36.523777    -0.709997    -0.380717    95.756966    -1.120710    -1.423694    0.458377    1.953435    6.778103    0.356654    -0.062861    4.601123    -2.158916    4.281943    12.677225    -2.103822    9.885674    -1.110352    -15.241793    -20.747993    -9.633676    7.793928    8.602185    -6.554561    -20.512152    12.424877    -4.013324    9.100845    -11.419053    5.610544    -21.082876    32.183022    -3.870091    4.695252    -6.959084    -2.369293    11.589602    -28.259577    0.630478    -9.089715    2.985057    3.327848    -3.488366    -6.888662    -2.882783    -1.852943    2.215100    -1.440179    13.685630    0.000000    0.000000    0.000000    -7.659477    -4.717709    -10.927589    4.385273    15.322231    -4.660145    5.655833    -4.444852    -5.051536    0.000000    0.000000    0.000000    
7.373967    97.887436    36.625671    -0.613439    -0.437649    95.790665    -1.049520    -1.430921    0.479277    1.964439    6.709238    0.377406    0.222704    5.112147    -2.052857    3.911632    13.114605    -2.050332    9.926692    -1.011373    -15.268531    -20.707682    -9.639616    7.971028    8.645579    -6.821098    -20.642141    13.213304    -4.185086    9.225750    -11.410890    5.612167    -21.169014    31.864248    -3.996423    4.540078    -6.953752    -2.766657    11.581432    -28.693832    0.409234    -9.636352    3.051227    3.480255    -3.504683    -6.737207    -2.935314    -1.825717    2.023134    -1.353582    13.675802    0.000000    0.000000    0.000000    -7.629046    -4.453382    -10.311056    4.811666    15.129082    -4.498553    5.553218    -4.425451    -5.902389    0.000000    0.000000    0.000000    
7.454367    97.936562    36.734867    -0.535771    -0.509371    95.831734    -0.981272    -1.520240    0.469834    2.018146    6.770618    0.363532    0.464130    5.452983    -1.861563    3.564289    13.719120    -1.903659    9.990980    -1.060825    -15.206579    -20.689892    -9.709479    8.171545    8.672364    -6.825442    -20.740799    13.444869    -4.145220    9.333533    -11.531937    5.578273    -21.269371    31.740639    -3.984705    4.404150    -7.167972    -2.996680    11.567068    -28.591185    0.282880    -9.995662    3.140223    3.604484    -3.501450    -6.615372    -2.986070    -1.722487    1.895310    -1.242494    13.587993    0.000000    0.000000    0.000000    -7.471208    -4.147257    -10.452140    4.804040    14.745165    -4.448497    5.617212    -4.205343    -5.813585    0.000000    0.000000    0.000000    
7.527424    97.985199    36.839962    -0.465995    -0.553279    95.866806    -0.951093    -1.587358    0.459126    2.066401    6.767086    0.350174    0.615378    5.877920    -1.710777    3.416783    14.313534    -1.781035    10.066924    -0.999455    -15.211473    -20.732674    -9.748195    8.378210    8.803957    -7.041580    -20.824896    13.951521    -4.284337    9.376776    -11.642604    5.484380    -21.290188    31.502306    -4.727621    4.263411    -6.955018    -2.933751    11.560330    -29.056091    0.380850    -10.047940    3.186247    3.717822    -3.441485    -6.419752    -2.999870    -1.784606    1.658185    -1.161351    13.528338    0.000000    0.000000    0.000000    -7.331324    -3.932389    -10.740167    4.702193    14.514851    -4.526618    5.744067    -3.983539    -5.442350    0.000000    0.000000    0.000000    
